<?xml version="1.0" standalone="no"?>
<!DOCTYPE svg PUBLIC "-//W3C//DTD SVG 20010904//EN"
 "http://www.w3.org/TR/2001/REC-SVG-20010904/DTD/svg10.dtd">
<svg version="1.0" xmlns="http://www.w3.org/2000/svg"
 width="817.000000pt" height="809.000000pt" viewBox="0 0 817.000000 809.000000"
 preserveAspectRatio="xMidYMid meet">

<g transform="translate(0.000000,809.000000) scale(0.100000,-0.100000)"
fill="#000000" stroke="none">
<path d="M1017 7859 c-131 -32 -228 -88 -338 -198 -84 -84 -102 -108 -142
-191 -90 -189 -82 71 -82 -2575 0 -2257 1 -2342 19 -2410 61 -228 205 -404
409 -500 159 -75 29 -69 1622 -73 l1430 -2 592 592 593 593 -16 90 c-22 130
-22 384 0 510 64 359 273 732 542 967 278 243 611 380 962 395 l143 6 -4 1106
c-3 1240 3 1144 -78 1306 -95 191 -270 331 -478 384 l-85 21 -2505 -1 c-2440
0 -2508 -1 -2584 -20z m2923 -898 c457 -95 771 -372 882 -779 16 -58 22 -117
26 -239 3 -140 1 -176 -18 -264 -12 -56 -39 -141 -60 -190 -86 -198 -196 -320
-470 -525 -330 -247 -387 -336 -398 -621 l-5 -143 -325 0 -325 0 6 183 c6 215
23 295 92 432 61 122 143 216 320 368 318 272 389 349 439 474 101 248 11 535
-202 642 -88 45 -162 61 -274 61 -169 0 -281 -38 -382 -131 -92 -84 -137 -180
-157 -339 l-12 -90 -326 2 -326 3 2 100 c8 340 166 653 428 850 134 100 343
187 515 215 41 6 82 13 90 15 8 2 98 2 200 0 133 -3 212 -9 280 -24z m-294
-3242 c127 -23 238 -108 296 -227 40 -82 50 -196 23 -288 -69 -243 -342 -362
-571 -249 -117 57 -193 156 -220 286 -44 213 98 428 316 475 71 16 85 16 156
3z"/>
<path d="M6554 4680 c-226 -32 -439 -118 -604 -245 -133 -102 -282 -280 -356
-426 -150 -297 -184 -648 -94 -965 l19 -67 -577 -572 c-317 -315 -693 -686
-836 -826 -142 -140 -277 -281 -301 -314 -92 -129 -125 -229 -125 -380 -1
-481 503 -789 939 -574 102 50 136 83 552 534 167 181 376 407 464 500 88 94
288 309 443 477 l284 305 82 -18 c329 -73 694 -21 961 139 215 128 403 328
513 547 89 179 126 343 127 565 0 205 -22 339 -63 371 -32 25 -65 33 -99 24
-18 -4 -141 -119 -353 -330 l-325 -323 -87 -7 c-321 -26 -547 89 -629 320 -17
48 -22 92 -26 217 -3 86 -2 173 1 195 7 33 46 77 324 356 l317 317 0 49 c0 70
-18 85 -129 111 -102 25 -319 35 -422 20z m-2118 -3495 c64 -19 128 -74 161
-139 22 -41 27 -65 27 -121 -1 -160 -115 -275 -274 -275 -309 0 -379 430 -86
532 63 21 108 22 172 3z"/>
</g>
</svg>
